# xmcd CD database file
#
# Track frame offsets:
#	150
#	15532
#	44325
#	63375
#	93757
#	137325
#	148205
#	185925
#	226652
#	251550
#
# Disc length: 3726 seconds
#
# Revision: 0
# Processed by: cddbd v1.5.2PL0 Copyright (c) Steve Scherf et al.
# Submitted via: CDex 1.51
#
DISCID=830e8c0a
DTITLE=The Cleveland Jazz Orchestra - Traditions
DYEAR=2007
DGENRE=Jazz
TTITLE0=Our Delight
TTITLE1=Days of Wine and Roses
TTITLE2=Sometimes I'm Happy
TTITLE3=Meeting with You
TTITLE4=Darn That Dream
TTITLE5=I'm Getting Sentimential Over You
TTITLE6='Round Midnight
TTITLE7=Thad Type Tune
TTITLE8=So Many Stars
TTITLE9=Conversations
EXTD=YEAR: 2007
EXTT0=
EXTT1=
EXTT2=
EXTT3=
EXTT4=
EXTT5=
EXTT6=
EXTT7=
EXTT8=
EXTT9=
PLAYORDER=
